<svg width="24" height="24" viewBox="0 0 24 24" fill="none" xmlns="http://www.w3.org/2000/svg">
<path d="M10.5661 17.308C11.3957 18.1376 12.2819 18.9107 13.187 19.5895C12.5271 20.1363 11.8671 20.6454 11.1978 21.1073C10.1701 21.8333 8.81255 21.8333 7.78493 21.1073C6.4462 20.174 5.12632 19.0615 3.85358 17.7982C2.59026 16.5255 1.47779 15.1962 0.54445 13.8669C-0.181483 12.8392 -0.181483 11.4817 0.54445 10.454C1.47779 9.1153 2.59026 7.78599 3.85358 6.52268C5.12632 5.24994 6.4462 4.13747 7.78493 3.20413C8.81255 2.48762 10.1701 2.48762 11.1978 3.20413C11.8671 3.66609 12.5271 4.17518 13.187 4.73142C12.2725 5.40078 11.3957 6.17386 10.5661 7.00349C9.53848 8.03111 8.61457 9.12473 7.82264 10.2561C7.03071 11.3968 7.03071 12.9241 7.82264 14.0554C8.624 15.1867 9.53848 16.2898 10.5661 17.308Z" fill="#F36F5A"/>
<path d="M23.5335 13.0373C22.7489 14.1683 21.8217 15.2586 20.7926 16.2877C19.7737 17.3168 18.6733 18.2338 17.5525 19.0285C17.0226 19.3953 16.3094 19.3953 15.7796 19.0285C15.6777 18.9572 15.5656 18.8757 15.4637 18.7942C14.455 18.0606 13.4666 17.2149 12.5394 16.2877C11.5103 15.2586 10.5933 14.1683 9.79854 13.0475C9.43174 12.5177 9.43174 11.8044 9.79854 11.2746C10.5933 10.1436 11.5103 9.05338 12.5394 8.02428C13.4666 7.09707 14.455 6.25137 15.4637 5.52795C15.5656 5.44643 15.6777 5.36492 15.7796 5.2936C16.0445 5.11019 16.3603 5.0083 16.666 5.0083C16.9717 5.0083 17.2875 5.11019 17.5525 5.2936C18.6835 6.07816 19.7737 7.00537 20.7926 8.02428C21.8115 9.04319 22.7387 10.1436 23.5335 11.2746C23.9003 11.8044 23.9003 12.5075 23.5335 13.0373Z" fill="url(#paint0_linear_1257_12113)"/>
<defs>
<linearGradient id="paint0_linear_1257_12113" x1="13.539" y1="13.6091" x2="22.9491" y2="9.22804" gradientUnits="userSpaceOnUse">
<stop stop-color="#0DBAD0"/>
<stop offset="0.5" stop-color="#03B1CA"/>
<stop offset="0.51" stop-color="#0696B8"/>
<stop offset="1" stop-color="#067DA6"/>
</linearGradient>
</defs>
</svg>
